# xmcd
#
# Track frame offsets:
#	150
#	21182
#	32891
#	75893
#	94297
#	115785
#	151265
#	164365
#	224220
#	241231
#	268852
#	290802
#
# Disc length: 4289 seconds
#
# Revision: 1
# Processed by: cddbd v1.5.1PL2 Copyright (c) Steve Scherf et al.
# Submitted via: audiograbber 1.83.01
#
DISCID=a710bf0c
DTITLE=Savoy Brown - Savoy Brown LIVE !
DYEAR=1900
DGENRE=Blues
TTITLE0=Street corner talkin' [live]
TTITLE1=I'm tired [live]
TTITLE2=Hell bound train [live]
TTITLE3=Train to nowhere [live]
TTITLE4=I can't get next to you [live]
TTITLE5=All I can do is cry [live]
TTITLE6=Needle and spoon [live]
TTITLE7=Tell mama [live]
TTITLE8=Run to me [live]
TTITLE9=Wang dang doodle [live]
TTITLE10=Louisiana blues [live]
TTITLE11=The boogie [live]
EXTD=
EXTT0=
EXTT1=
EXTT2=
EXTT3=
EXTT4=
EXTT5=
EXTT6=
EXTT7=
EXTT8=
EXTT9=
EXTT10=
EXTT11=
PLAYORDER=
